<?xml version="1.0" encoding="UTF-8"?>
<svg id="Layer_1" xmlns="http://www.w3.org/2000/svg" version="1.1" viewBox="0 0 600 600">
  <!-- Generator: Adobe Illustrator 29.1.0, SVG Export Plug-In . SVG Version: 2.1.0 Build 142)  -->
  <defs>
    <style>
      .st0 {
        fill: #2d3354;
      }

      .st1 {
        fill: #bfe937;
      }

      .st2 {
        fill: #99bf2e;
      }

      .st3 {
        fill: #1b1e33;
      }

      .st4 {
        fill: #0d0e19;
      }
    </style>
  </defs>
  <polygon class="st0" points="404.96 110.58 404.96 110.59 312.14 164.12 299.91 171.17 287.69 164.12 194.87 110.59 194.87 110.58 299.91 50 404.96 110.58"/>
  <polygon class="st3" points="175.61 349.75 70.57 289.17 70.57 182.11 175.61 242.69 175.61 349.75"/>
  <polygon class="st0" points="280.65 182.1 280.65 182.11 187.83 235.64 175.61 242.69 163.38 235.64 70.57 182.11 70.57 182.1 175.61 121.52 280.65 182.1"/>
  <polygon class="st2" points="424.39 350.03 529.43 289.45 529.43 182.39 424.39 242.97 424.39 350.03"/>
  <polygon class="st1" points="529.43 182.38 529.43 182.39 436.62 235.92 424.39 242.97 412.17 235.92 319.35 182.39 319.35 182.38 424.39 121.8 529.43 182.38"/>
  <polygon class="st3" points="299.91 550 70.57 417.72 70.57 310.66 299.91 442.94 299.91 550"/>
  <polygon class="st4" points="299.91 550 404.95 489.42 404.95 382.36 299.91 442.94 299.91 550"/>
  <polygon class="st3" points="299.91 421.46 194.88 360.88 194.88 253.82 299.91 314.4 299.91 421.46"/>
  <polygon class="st4" points="299.91 421.46 404.95 360.88 404.95 253.82 299.91 314.4 299.91 421.46"/>
  <polygon class="st0" points="404.96 253.81 404.96 253.82 312.14 307.35 299.91 314.39 287.69 307.35 194.87 253.82 194.87 253.81 299.91 193.23 404.96 253.81"/>
</svg>