<?xml version="1.0" encoding="UTF-8"?>
<svg id="Layer_1" xmlns="http://www.w3.org/2000/svg" version="1.1" viewBox="0 0 2564.48 600">
  <!-- Generator: Adobe Illustrator 29.1.0, SVG Export Plug-In . SVG Version: 2.1.0 Build 142)  -->
  <defs>
    <style>
      .st0 {
        fill: #b5b5b5;
      }

      .st1 {
        fill: #bfe937;
      }

      .st2 {
        fill: #99bf2e;
      }

      .st3 {
        fill: #fff;
      }

      .st4 {
        fill: #eaeae9;
      }
    </style>
  </defs>
  <g>
    <polygon class="st3" points="436.07 110.58 436.07 110.59 343.26 164.12 331.03 171.17 318.8 164.12 225.99 110.59 225.99 110.58 331.03 50 436.07 110.58"/>
    <polygon class="st4" points="206.72 349.75 101.69 289.17 101.69 182.11 206.72 242.69 206.72 349.75"/>
    <polygon class="st3" points="311.77 182.1 311.77 182.11 218.95 235.64 206.72 242.69 194.5 235.64 101.68 182.11 101.68 182.1 206.72 121.52 311.77 182.1"/>
    <polygon class="st2" points="455.51 350.03 560.55 289.45 560.55 182.39 455.51 242.97 455.51 350.03"/>
    <polygon class="st1" points="560.55 182.38 560.55 182.39 467.74 235.92 455.51 242.97 443.28 235.92 350.47 182.39 350.47 182.38 455.51 121.8 560.55 182.38"/>
    <polygon class="st4" points="331.03 550 101.68 417.72 101.68 310.66 331.03 442.94 331.03 550"/>
    <polygon class="st0" points="331.03 550 436.07 489.42 436.07 382.36 331.03 442.94 331.03 550"/>
    <polygon class="st4" points="331.03 421.46 226 360.88 226 253.82 331.03 314.4 331.03 421.46"/>
    <polygon class="st0" points="331.03 421.46 436.07 360.88 436.07 253.82 331.03 314.4 331.03 421.46"/>
    <polygon class="st3" points="436.07 253.81 436.07 253.82 343.26 307.35 331.03 314.39 318.8 307.35 225.99 253.82 225.99 253.81 331.03 193.23 436.07 253.81"/>
  </g>
  <g>
    <path class="st3" d="M731.32,410.12c-12.85-5.49-23.01-13.39-30.48-23.72-7.47-10.32-11.31-22.51-11.53-36.57h49.42c.66,9.45,4.01,16.92,10.05,22.4,6.04,5.49,14.33,8.24,24.87,8.24s19.22-2.58,25.37-7.74c6.15-5.16,9.22-11.91,9.22-20.26,0-6.81-2.09-12.41-6.26-16.8-4.17-4.39-9.39-7.85-15.65-10.38-6.26-2.52-14.88-5.32-25.86-8.4-14.94-4.39-27.07-8.73-36.41-13.01-9.34-4.28-17.35-10.76-24.05-19.44-6.7-8.67-10.05-20.26-10.05-34.76,0-13.62,3.4-25.48,10.21-35.58,6.8-10.1,16.36-17.84,28.66-23.23,12.3-5.38,26.36-8.07,42.17-8.07,23.72,0,42.99,5.77,57.82,17.3,14.83,11.53,23.01,27.62,24.55,48.27h-50.74c-.44-7.91-3.79-14.44-10.05-19.6-6.26-5.16-14.55-7.74-24.87-7.74-9.01,0-16.2,2.31-21.58,6.92-5.38,4.61-8.07,11.32-8.07,20.1,0,6.15,2.03,11.26,6.1,15.32,4.06,4.07,9.11,7.36,15.15,9.88,6.04,2.53,14.55,5.44,25.53,8.73,14.93,4.4,27.12,8.79,36.57,13.18,9.44,4.4,17.57,10.99,24.38,19.77,6.8,8.79,10.21,20.32,10.21,34.59,0,12.3-3.19,23.72-9.55,34.26-6.37,10.54-15.71,18.94-28,25.2-12.3,6.26-26.91,9.39-43.82,9.39-16.04,0-30.48-2.74-43.32-8.24Z"/>
    <path class="st3" d="M1068.2,233.53v182.52h-46.45v-23.06c-5.93,7.91-13.67,14.12-23.23,18.61-9.55,4.5-19.93,6.75-31.14,6.75-14.28,0-26.91-3.02-37.89-9.06-10.99-6.04-19.6-14.93-25.86-26.69-6.26-11.75-9.39-25.75-9.39-42.01v-107.07h46.12v100.49c0,14.5,3.62,25.65,10.87,33.44,7.25,7.8,17.13,11.7,29.65,11.7s22.73-3.9,29.98-11.7c7.25-7.79,10.87-18.94,10.87-33.44v-100.49h46.45Z"/>
    <path class="st3" d="M1184.33,238.96c10.43-5.6,22.35-8.4,35.75-8.4,15.59,0,29.7,3.85,42.34,11.53,12.63,7.69,22.62,18.61,29.98,32.78,7.36,14.17,11.04,30.59,11.04,49.25s-3.68,35.2-11.04,49.58c-7.36,14.39-17.35,25.53-29.98,33.44-12.63,7.91-26.74,11.86-42.34,11.86-13.4,0-25.2-2.75-35.42-8.24-10.21-5.49-18.51-12.41-24.87-20.76v113h-46.12V233.53h46.12v26.36c5.93-8.34,14.11-15.32,24.55-20.92ZM1249.56,295.63c-4.51-8.01-10.44-14.11-17.79-18.29-7.36-4.17-15.32-6.26-23.89-6.26s-16.2,2.14-23.56,6.42c-7.36,4.28-13.29,10.49-17.79,18.61-4.51,8.13-6.75,17.68-6.75,28.66s2.25,20.54,6.75,28.66c4.5,8.13,10.43,14.33,17.79,18.61,7.35,4.28,15.21,6.42,23.56,6.42s16.52-2.19,23.89-6.59c7.36-4.39,13.29-10.65,17.79-18.78,4.5-8.12,6.75-17.79,6.75-28.99s-2.25-20.48-6.75-28.5Z"/>
    <path class="st3" d="M1505.39,338.63h-133.43c1.1,13.18,5.71,23.51,13.84,30.97,8.12,7.47,18.12,11.2,29.98,11.2,17.13,0,29.32-7.36,36.57-22.07h49.75c-5.27,17.57-15.38,32.01-30.31,43.32-14.94,11.32-33.27,16.97-55.02,16.97-17.58,0-33.33-3.9-47.28-11.7-13.95-7.79-24.82-18.83-32.62-33.11-7.8-14.27-11.7-30.75-11.7-49.42s3.84-35.47,11.53-49.75c7.69-14.27,18.45-25.26,32.29-32.95,13.84-7.69,29.76-11.53,47.77-11.53s32.89,3.74,46.62,11.2c13.73,7.47,24.38,18.07,31.96,31.79,7.58,13.73,11.37,29.49,11.37,47.28,0,6.59-.44,12.52-1.32,17.79ZM1458.93,307.66c-.22-11.86-4.5-21.36-12.85-28.5-8.35-7.13-18.56-10.71-30.64-10.71-11.42,0-21.03,3.46-28.83,10.38-7.8,6.92-12.58,16.53-14.33,28.83h86.65Z"/>
    <path class="st3" d="M1609.66,239.13c9.55-5.49,20.48-8.24,32.78-8.24v48.43h-12.19c-14.5,0-25.42,3.41-32.78,10.21-7.36,6.81-11.04,18.67-11.04,35.58v90.93h-46.12v-182.52h46.12v28.33c5.93-9.66,13.67-17.24,23.23-22.73Z"/>
    <path class="st3" d="M1926.44,233.53l-53.37,182.52h-49.75l-33.28-127.5-33.28,127.5h-50.08l-53.7-182.52h46.78l32.29,139.03,34.92-139.03h48.76l34.26,138.7,32.29-138.7h44.15Z"/>
    <path class="st3" d="M1985.08,407.32c-14.06-7.79-25.1-18.83-33.11-33.11-8.02-14.27-12.03-30.75-12.03-49.42s4.12-35.14,12.35-49.42c8.24-14.27,19.49-25.31,33.77-33.11,14.27-7.79,30.2-11.7,47.77-11.7s33.49,3.9,47.77,11.7c14.27,7.8,25.53,18.84,33.77,33.11,8.24,14.28,12.35,30.75,12.35,49.42s-4.23,35.14-12.69,49.42c-8.46,14.28-19.88,25.32-34.26,33.11-14.39,7.8-30.48,11.7-48.27,11.7s-33.39-3.9-47.44-11.7ZM2056.08,372.73c7.36-4.06,13.23-10.16,17.63-18.29,4.39-8.12,6.59-18.01,6.59-29.65,0-17.35-4.56-30.69-13.67-40.03-9.12-9.33-20.26-14-33.44-14s-24.22,4.67-33.11,14c-8.9,9.34-13.34,22.68-13.34,40.03s4.34,30.7,13.01,40.03c8.67,9.34,19.6,14,32.78,14,8.34,0,16.2-2.03,23.56-6.09Z"/>
    <path class="st3" d="M2231.02,239.13c9.55-5.49,20.48-8.24,32.78-8.24v48.43h-12.19c-14.5,0-25.42,3.41-32.78,10.21-7.36,6.81-11.04,18.67-11.04,35.58v90.93h-46.12v-182.52h46.12v28.33c5.93-9.66,13.67-17.24,23.23-22.73Z"/>
    <path class="st3" d="M2402.83,416.05l-61.94-77.75v77.75h-46.12v-243.8h46.12v138.7l61.28-77.42h59.96l-80.39,91.59,81.05,90.93h-59.96Z"/>
  </g>
</svg>